<?xml version="1.0" encoding="utf-8"?>
<!-- Generator: Adobe Illustrator 16.0.0, SVG Export Plug-In . SVG Version: 6.00 Build 0)  -->
<!DOCTYPE svg PUBLIC "-//W3C//DTD SVG 1.1//EN" "http://www.w3.org/Graphics/SVG/1.1/DTD/svg11.dtd">
<svg version="1.1" xmlns="http://www.w3.org/2000/svg" xmlns:xlink="http://www.w3.org/1999/xlink" x="0px" y="0px"
	 width="561.543px" height="209.602px" viewBox="0 0 561.543 209.602" enable-background="new 0 0 561.543 209.602"
	 xml:space="preserve">
<g id="Layer_2">
	<text transform="matrix(1 0 0 1 227.3975 109.3452)" fill="#FFFFFF" font-family="'GillSansMTPro-Light'" font-size="33.8061">MARCOS IGLESIAS</text>
	<text transform="matrix(1 0 0 1 227.3975 136.1035)" fill="#1BEFA2" font-family="'GillSansMTPro-Light'" font-size="27.5759">Software Engineer</text>
</g>
<g id="Layer_1">
	<path fill="#FFFFFF" d="M98.199,77.306c4.432,0,8.014,1.227,10.747,3.68c2.732,2.452,4.701,5.766,5.906,9.939
		c1.721-4.518,4.582-7.981,8.584-10.392c3.571-2.151,7.369-3.228,11.392-3.228s7.379,0.549,10.069,1.646
		c2.689,1.098,4.98,2.701,6.873,4.81c3.83,4.346,5.746,10.456,5.746,18.33v32.208c4.174,0.817,6.625,1.313,7.356,1.484
		c1.334,0.259,2.001,1.055,2.001,2.389v5.551h-20.847v-41.631c-0.001-5.121-1.12-9.005-3.356-11.65
		c-2.238-2.646-5.487-3.97-9.747-3.97c-3.959,0-7.251,1.313-9.876,3.938c-2.797,2.797-4.195,6.69-4.195,11.683v32.207
		c0.731,0.129,3.184,0.624,7.358,1.484c1.291,0.259,1.937,1.055,1.937,2.389v5.551h-20.784v-41.631
		c0-10.414-4.131-15.62-12.393-15.62c-5.335,0-10.197,2.84-14.586,8.52v39.308l3.42,0.678c2.281,0.452,3.593,0.721,3.937,0.807
		c1.334,0.259,2.001,1.055,2.001,2.389v5.551H59.601v-5.551c0-1.334,0.645-2.13,1.936-2.389l7.359-1.484V87.763
		c-4.131-0.818-6.584-1.313-7.359-1.484c-1.291-0.259-1.936-1.055-1.936-2.389v-5.551h9.295h6.841c1.635,0,2.668,0.796,3.098,2.388
		l0.84,6.713C85.182,80.684,91.357,77.306,98.199,77.306"/>
	<path fill="#1BEFA2" d="M174.685,63.044c-0.554-1.243-0.828-2.582-0.828-4.021c0-1.436,0.274-2.805,0.828-4.104
		c0.553-1.298,1.313-2.432,2.28-3.398c0.968-0.968,2.074-1.729,3.318-2.28c1.242-0.554,2.584-0.828,4.021-0.828
		s2.792,0.274,4.063,0.828c1.271,0.552,2.389,1.313,3.358,2.28c0.965,0.967,1.739,2.101,2.319,3.398
		c0.582,1.3,0.873,2.669,0.873,4.104c0,1.438-0.291,2.777-0.873,4.021c-0.578,1.243-1.353,2.352-2.319,3.315
		c-0.968,0.97-2.087,1.73-3.358,2.281c-1.271,0.553-2.627,0.829-4.063,0.829s-2.778-0.277-4.021-0.829
		c-1.244-0.552-2.351-1.312-3.318-2.281C175.999,65.396,175.238,64.287,174.685,63.044"/>
	<path fill="#FFFFFF" d="M200.446,138.151v5.571h-30.114v-5.571c0-1.143,0.834-2.161,1.966-2.386
		c1.131-0.227,7.348-1.462,7.348-1.462V87.759c0,0-6.218-1.236-7.348-1.463c-1.132-0.225-1.966-1.242-1.966-2.386v-5.572h20.801
		v55.966c0,0,6.215,1.236,7.347,1.463C199.612,135.991,200.446,137.008,200.446,138.151"/>
	<rect x="212.594" y="78.338" fill="#1BEFA2" width="5.835" height="65.385"/>
</g>
</svg>
